<svg xmlns="http://www.w3.org/2000/svg" viewBox="50 0 462 512" enable-background="new 50 0 462 512"><path fill="#00a3cc" d="m256 50c-113.77 0-206 92.23-206 206s92.23 206 206 206c113.77 0 206-92.23 206-206s-92.23-206-206-206m0 367c-88.978 0-161-72.01-161-161 0-88.979 72.01-161 161-161 88.977 0 161 72.01 161 161 0 88.977-72.01 161-161 161m126.82-151.21c1.711.297 2.961 1.781 2.961 3.519v.093c0 1.72-1.223 3.188-2.914 3.505-37.09 6.938-124.97 21.35-134.61 21.35-13.809 0-25-11.191-25-25 0-9.832 14.79-104.68 21.618-143.08.273-1.542 1.614-2.669 3.181-2.669h.008c1.709 0 3.164 1.243 3.431 2.933l18.934 119.9 112.39 19.447"/></svg>