<svg xmlns="http://www.w3.org/2000/svg" viewBox="50 0 462 512" enable-background="new 50 0 462 512"><path fill="#00a3cc" d="m333.81 227.61v-38.22l-20.652-7.345c-7.875-2.799-14.211-8.813-17.409-16.534-.002-.002-.004-.007-.004-.011-3.211-7.737-2.986-16.475.608-24.04l9.408-19.789-27.03-27.03-19.782 9.403c-7.562 3.597-16.312 3.822-24.05.615-.004-.004-.008-.004-.01-.004-7.727-3.203-13.729-9.531-16.533-17.412l-7.344-20.653h-38.22l-7.346 20.653c-2.802 7.873-8.812 14.211-16.532 17.412-.002 0-.006.002-.01.004-7.74 3.209-16.478 2.984-24.05-.613l-19.784-9.405-27.03 27.03 9.406 19.785c3.596 7.562 3.819 16.312.612 24.05-.002.002-.002.005-.006.011-3.201 7.723-9.528 13.729-17.408 16.53l-20.652 7.345v38.22l20.653 7.344c7.873 2.801 14.209 8.814 17.41 16.533.002.004.002.008.004.01 3.209 7.74 2.984 16.478-.61 24.05l-9.408 19.787 27.03 27.02 19.784-9.402c7.562-3.596 16.312-3.82 24.05-.613.002.003.006.005.008.005 7.724 3.202 13.728 9.526 16.53 17.407l7.346 20.652h38.22l7.299-20.52c2.824-7.947 8.892-14.345 16.679-17.582.004-.003.008-.003.012-.005 7.666-3.188 16.32-2.969 23.818.595l19.909 9.463 27.03-27.02-9.412-19.799c-3.592-7.555-3.813-16.295-.608-24.02.002-.005.004-.007.004-.011 3.206-7.731 9.538-13.742 17.426-16.547l20.638-7.341m-141.91 32.93c-28.742 0-52.04-23.301-52.04-52.04 0-28.742 23.301-52.04 52.04-52.04 28.74 0 52.04 23.301 52.04 52.04.001 28.74-23.3 52.04-52.04 52.04m270.09 79.45v-20.32l-10.979-3.901c-4.188-1.488-7.557-4.688-9.258-8.791-.002 0-.002-.002-.002-.004-1.707-4.115-1.586-8.761.326-12.783l5-10.521-14.369-14.366-10.519 5c-4.02 1.909-8.67 2.03-12.783.325-.002 0-.004 0-.006 0-4.104-1.705-7.299-5.067-8.787-9.258l-3.903-10.979h-20.32l-3.904 10.979c-1.489 4.187-4.686 7.555-8.789 9.258-.002 0-.004 0-.006 0-4.111 1.705-8.757 1.586-12.779-.325l-10.521-5-14.369 14.366 5 10.521c1.91 4.02 2.029 8.672.324 12.783 0 .002 0 .004-.002.006-1.701 4.106-5.066 7.299-9.254 8.789l-10.98 3.901v20.32l10.98 3.902c4.186 1.487 7.555 4.684 9.254 8.789.002.002.002.004.002.006 1.707 4.113 1.588 8.758-.324 12.781l-5 10.52 14.369 14.367 10.521-4.998c4.02-1.912 8.67-2.031 12.781-.326.002 0 .002.002.004.002 4.107 1.701 7.298 5.064 8.789 9.252l3.904 10.982h20.32l3.879-10.91c1.502-4.225 4.727-7.625 8.867-9.348.002 0 .004-.002.006-.002 4.074-1.695 8.676-1.578 12.662.315l10.584 5.03 14.369-14.367-5-10.525c-1.91-4.02-2.029-8.663-.326-12.771 0-.002.002-.004.002-.004 1.707-4.111 5.071-7.308 9.264-8.799l10.975-3.897m-75.44 17.504c-15.279 0-27.665-12.387-27.665-27.664 0-15.278 12.386-27.666 27.665-27.666s27.666 12.387 27.666 27.666c0 15.277-12.387 27.664-27.666 27.664m-71.28 42.32v-11.14l-7.753-1.938c-1.604-.402-2.873-1.646-3.3-3.246-.002-.008-.005-.018-.007-.025-.423-1.575.045-3.26 1.218-4.393l5.771-5.584-5.57-9.646-7.647 2.187c-1.617.463-3.366.012-4.558-1.176-.001-.002-.002-.002-.002-.004-1.141-1.138-1.574-2.806-1.132-4.354l2.221-7.771-9.646-5.57-5.557 5.744c-1.149 1.188-2.856 1.664-4.453 1.235-.01 0-.018-.004-.024-.006-1.58-.42-2.807-1.666-3.204-3.254l-1.948-7.789h-11.139l-1.941 7.752c-.4 1.605-1.646 2.873-3.245 3.301-.009.003-.019.005-.025.007-1.576.424-3.258-.045-4.394-1.218l-5.584-5.772-9.646 5.57 2.186 7.647c.464 1.617.013 3.367-1.176 4.56-.001 0-.002.002-.003.002-1.138 1.141-2.805 1.573-4.354 1.131l-7.772-2.222-5.568 9.646 5.744 5.555c1.188 1.15 1.662 2.859 1.236 4.455-.002.008-.006.019-.007.025-.42 1.58-1.667 2.807-3.254 3.203l-7.79 1.948v11.14l7.753 1.938c1.605.402 2.873 1.648 3.3 3.246.003.01.005.021.006.027.424 1.576-.044 3.258-1.217 4.393l-5.771 5.584 5.567 9.646 7.648-2.188c1.618-.462 3.366-.013 4.559 1.176.001.002.002.004.004.004 1.141 1.137 1.572 2.807 1.13 4.354l-2.222 7.773 9.646 5.568 5.557-5.744c1.148-1.188 2.857-1.662 4.454-1.236.009.002.018.004.025.006 1.579.42 2.807 1.668 3.203 3.254l1.95 7.791h11.139l1.939-7.754c.402-1.604 1.646-2.873 3.247-3.299.007-.004.016-.006.023-.008 1.576-.422 3.259.045 4.394 1.219l5.583 5.771 9.646-5.568-2.186-7.65c-.462-1.617-.011-3.367 1.177-4.557.001-.002.002-.002.003-.004 1.138-1.142 2.807-1.572 4.354-1.131l7.771 2.223 5.57-9.646-5.744-5.557c-1.188-1.15-1.662-2.857-1.236-4.455.002-.008.006-.016.007-.025.421-1.579 1.668-2.805 3.254-3.202l7.79-1.949m-51.16 14.51c-11.09 0-20.08-8.99-20.08-20.08 0-11.09 8.989-20.08 20.08-20.08 11.09 0 20.08 8.99 20.08 20.08 0 11.09-8.988 20.08-20.08 20.08"/></svg>