<svg xmlns="http://www.w3.org/2000/svg" height="176.39" viewBox="0 0 561.371 176.391" enable-background="new 0 0 561.371 176.391"><g enable-background="new    " fill="#00a3cc"><path d="m173.13 127.11v-58.674h6.822v52.49h25.885v6.181h-32.707"/><path d="m248.5 127.11h-32.708v-58.674h32.708v6.06h-25.886v18.903h24.32v6.02h-24.32v21.592h25.886v6.099"/><path d="m307.33 127.11h-7.787l-32.06-49.24h-.321c.428 5.779.642 11.08.642 15.894v33.35h-6.301v-58.675h7.706l31.985 49.04h.32c-.053-.723-.174-3.043-.361-6.963-.188-3.919-.254-6.722-.201-8.407v-33.672h6.383v58.674"/><path d="m341.52 127.11h-6.822v-52.614h-18.58v-6.06h43.984v6.06h-18.582v52.614"/><path d="m368.93 127.11v-58.674h6.822v58.674h-6.822"/><path d="m416.97 73.7c-6.447 0-11.537 2.146-15.27 6.44s-5.6 10.175-5.6 17.64c0 7.679 1.799 13.611 5.398 17.798 3.598 4.188 8.729 6.281 15.391 6.281 4.094 0 8.762-.736 14.01-2.208v5.979c-4.066 1.525-9.08 2.288-15.05 2.288-8.643 0-15.311-2.622-20.01-7.866-4.695-5.243-7.04-12.694-7.04-22.354 0-6.05 1.129-11.344 3.391-15.893 2.26-4.548 5.523-8.05 9.793-10.515 4.266-2.461 9.289-3.692 15.07-3.692 6.154 0 11.531 1.124 16.13 3.371l-2.889 5.859c-4.44-2.085-8.881-3.128-13.323-3.128"/></g><path fill="#d4d600" d="m104.81 68.43c-79.61 65.19-79.64 109.97-82.52 94.63-2.873-15.342-21.298-13.195-21.298-13.195-13.69-21.869 120.23-103.62 103.82-81.44"/><path fill="#00a3cc" d="m255.56 15.823c-98.72 29.03-116.19 70.27-112.87 55.01 3.326-15.25-14.477-20.451-14.477-20.451-4.091-25.472 151.09-48.593 127.34-34.562"/><path fill="#eba21c" d="m414.9 26.1c-102.23-11.719-134.38 19.455-125.38 6.703 9.01-12.752-5.365-24.477-5.365-24.477 6.156-25.06 158.09 14.1 130.75 17.773"/><path fill="#bb0d7b" d="m557.65 97.62c-89.59-50.608-131.35-34.426-118.09-42.662 13.262-8.234 4.596-24.633 4.596-24.633 15.428-20.681 140.11 74.57 113.5 67.3"/><g enable-background="new    " fill="#00a3cc"><path d="m59.757 167.83h-3.878v-15.06h-4.966v-3.228h13.809v3.228h-4.965v15.06"/><path d="m73.57 168.08c-2.251 0-4.01-.621-5.278-1.863-1.268-1.243-1.901-3-1.901-5.278 0-2.344.585-4.155 1.757-5.436 1.171-1.279 2.792-1.92 4.859-1.92 1.977 0 3.515.563 4.616 1.688 1.101 1.126 1.651 2.682 1.651 4.666v1.851h-9.02c.042 1.085.363 1.931.963 2.54.601.608 1.442.913 2.527.913.842 0 1.638-.088 2.389-.263.75-.176 1.534-.455 2.352-.839v2.952c-.667.334-1.38.582-2.139.744-.759.164-1.685.245-2.777.245m-.538-11.782c-.809 0-1.442.256-1.901.769-.459.513-.722 1.241-.788 2.183h5.354c-.017-.941-.263-1.67-.738-2.183-.476-.514-1.118-.769-1.927-.769"/><path d="m88.05 168.08c-4.353 0-6.529-2.389-6.529-7.167 0-2.377.592-4.192 1.776-5.447s2.881-1.883 5.091-1.883c1.618 0 3.069.317 4.353.951l-1.125 2.951c-.601-.241-1.159-.439-1.676-.594s-1.034-.231-1.551-.231c-1.984 0-2.977 1.409-2.977 4.228 0 2.735.992 4.103 2.977 4.103.734 0 1.414-.098 2.039-.294.625-.195 1.251-.502 1.876-.919v3.265c-.617.393-1.241.663-1.87.813-.631.149-1.425.224-2.384.224"/><path d="m108.45 167.83h-3.815v-8.168c0-2.02-.75-3.03-2.251-3.03-1.067 0-1.838.363-2.314 1.089-.475.726-.713 1.901-.713 3.527v6.579h-3.815v-19.463h3.815v3.965c0 .309-.029 1.034-.087 2.177l-.088 1.126h.2c.851-1.368 2.202-2.052 4.053-2.052 1.643 0 2.89.442 3.74 1.326.85.884 1.275 2.151 1.275 3.803v9.118"/><path d="m125.29 167.83h-3.815v-8.168c0-1.01-.179-1.766-.538-2.271-.359-.504-.93-.757-1.714-.757-1.067 0-1.838.356-2.314 1.07-.475.713-.713 1.895-.713 3.546v6.579h-3.815v-13.984h2.914l.513 1.789h.212c.425-.676 1.01-1.187 1.757-1.532.747-.347 1.595-.52 2.546-.52 1.626 0 2.86.44 3.702 1.319.842.88 1.263 2.149 1.263 3.81v9.119z"/><path d="m141.92 160.81c0 2.277-.601 4.058-1.801 5.342s-2.873 1.926-5.02 1.926c-1.342 0-2.527-.294-3.553-.882-1.025-.588-1.813-1.432-2.364-2.533-.55-1.101-.825-2.385-.825-3.853 0-2.284.596-4.061 1.789-5.328s2.869-1.901 5.03-1.901c1.342 0 2.527.292 3.552.876 1.026.584 1.814 1.422 2.364 2.514.55 1.092.825 2.372.825 3.839m-9.669 0c0 1.385.227 2.432.682 3.14.454.709 1.194 1.063 2.22 1.063 1.017 0 1.749-.353 2.195-1.057.446-.705.669-1.753.669-3.146 0-1.384-.225-2.422-.675-3.114s-1.188-1.038-2.214-1.038c-1.018 0-1.751.344-2.202 1.032-.45.688-.675 1.728-.675 3.12"/><path d="m148.89 167.83h-3.815v-19.463h3.815v19.463"/><path d="m165.6 160.81c0 2.277-.601 4.058-1.801 5.342s-2.873 1.926-5.02 1.926c-1.342 0-2.526-.294-3.552-.882-1.025-.588-1.813-1.432-2.364-2.533-.55-1.101-.825-2.385-.825-3.853 0-2.284.596-4.061 1.789-5.328s2.869-1.901 5.03-1.901c1.342 0 2.527.292 3.552.876 1.026.584 1.814 1.422 2.364 2.514.549 1.092.825 2.372.825 3.839m-9.669 0c0 1.385.227 2.432.682 3.14.454.709 1.194 1.063 2.22 1.063 1.017 0 1.749-.353 2.195-1.057.446-.705.669-1.753.669-3.146 0-1.384-.225-2.422-.675-3.114s-1.188-1.038-2.214-1.038c-1.018 0-1.751.344-2.202 1.032-.45.688-.675 1.728-.675 3.12"/><path d="m180.92 153.85v1.938l-2.188.563c.399.625.601 1.325.601 2.102 0 1.501-.523 2.67-1.57 3.508-1.047.839-2.5 1.258-4.359 1.258l-.688-.038-.562-.062c-.392.301-.588.634-.588 1 0 .55.7.825 2.101.825h2.376c1.535 0 2.704.33 3.509.988.805.659 1.207 1.626 1.207 2.902 0 1.634-.682 2.901-2.045 3.802-1.364.901-3.321 1.352-5.873 1.352-1.951 0-3.442-.34-4.472-1.02s-1.544-1.633-1.544-2.858c0-.842.263-1.547.788-2.113.525-.567 1.296-.972 2.314-1.214-.392-.167-.734-.439-1.026-.819-.292-.379-.438-.781-.438-1.207 0-.533.154-.978.462-1.332s.755-.702 1.338-1.045c-.734-.316-1.315-.825-1.745-1.525-.43-.7-.644-1.526-.644-2.477 0-1.526.496-2.706 1.488-3.54.992-.834 2.41-1.251 4.253-1.251.392 0 .856.036 1.395.106.538.071.882.123 1.032.156h4.878m-10.794 15.961c0 .525.252.938.756 1.238.505.3 1.211.45 2.12.45 1.368 0 2.439-.188 3.215-.562.775-.376 1.163-.889 1.163-1.539 0-.525-.229-.888-.688-1.088-.459-.2-1.168-.301-2.126-.301h-1.977c-.7 0-1.286.165-1.757.494s-.706.766-.706 1.308m1.389-11.382c0 .759.173 1.359.519 1.801.346.442.874.663 1.583.663.717 0 1.242-.221 1.576-.663.333-.441.5-1.042.5-1.801 0-1.685-.692-2.526-2.076-2.526-1.402-.001-2.102.841-2.102 2.526"/><path d="m183.06 150.23c0-1.242.692-1.863 2.076-1.863s2.076.621 2.076 1.863c0 .593-.173 1.054-.519 1.383-.347.329-.865.494-1.558.494-1.383 0-2.075-.626-2.075-1.877m3.978 17.6h-3.815v-13.984h3.815v13.984"/><path d="m197.37 168.08c-2.251 0-4.01-.621-5.278-1.863-1.268-1.243-1.901-3-1.901-5.278 0-2.344.586-4.155 1.758-5.436 1.172-1.279 2.791-1.92 4.859-1.92 1.977 0 3.515.563 4.615 1.688 1.102 1.126 1.651 2.682 1.651 4.666v1.851h-9.02c.042 1.085.363 1.931.963 2.54.601.608 1.443.913 2.527.913.842 0 1.639-.088 2.389-.263.751-.176 1.534-.455 2.352-.839v2.952c-.667.334-1.38.582-2.139.744-.759.164-1.685.245-2.777.245m-.538-11.782c-.81 0-1.443.256-1.901.769-.459.513-.722 1.241-.788 2.183h5.354c-.017-.941-.263-1.67-.738-2.183s-1.118-.769-1.927-.769"/><path d="m211.59 162.53v-3.127h6.717v3.127h-6.717"/><path d="m228.03 167.83v-18.287h3.877v18.287h-3.877"/><path d="m249.12 167.83h-3.815v-8.168c0-1.01-.18-1.766-.538-2.271-.358-.504-.93-.757-1.713-.757-1.068 0-1.839.356-2.314 1.07-.476.713-.713 1.895-.713 3.546v6.579h-3.815v-13.984h2.915l.513 1.789h.213c.425-.676 1.01-1.187 1.757-1.532.746-.347 1.595-.52 2.546-.52 1.626 0 2.86.44 3.702 1.319.842.88 1.264 2.149 1.264 3.81v9.119z"/><path d="m265.96 167.83h-3.815v-8.168c0-1.01-.18-1.766-.538-2.271-.358-.504-.93-.757-1.713-.757-1.068 0-1.839.356-2.314 1.07-.476.713-.713 1.895-.713 3.546v6.579h-3.815v-13.984h2.915l.513 1.789h.213c.425-.676 1.01-1.187 1.757-1.532.746-.347 1.595-.52 2.546-.52 1.626 0 2.86.44 3.702 1.319.842.88 1.264 2.149 1.264 3.81v9.119z"/><path d="m282.59 160.81c0 2.277-.601 4.058-1.802 5.342-1.2 1.284-2.872 1.926-5.02 1.926-1.343 0-2.526-.294-3.552-.882-1.026-.588-1.814-1.432-2.364-2.533-.552-1.101-.827-2.385-.827-3.853 0-2.284.598-4.061 1.79-5.328s2.868-1.901 5.03-1.901c1.343 0 2.526.292 3.553.876 1.025.584 1.813 1.422 2.363 2.514.552 1.092.827 2.372.827 3.839m-9.669 0c0 1.385.227 2.432.682 3.14.454.709 1.194 1.063 2.22 1.063 1.018 0 1.749-.353 2.195-1.057.446-.705.67-1.753.67-3.146 0-1.384-.226-2.422-.676-3.114s-1.188-1.038-2.214-1.038c-1.018 0-1.751.344-2.202 1.032-.45.688-.675 1.728-.675 3.12"/><path d="m289.07 167.83l-5.328-13.984h3.99l2.702 7.968c.3 1.01.487 1.964.562 2.864h.075c.041-.8.229-1.755.562-2.864l2.689-7.968h3.99l-5.329 13.984h-3.913"/><path d="m309.2 167.83l-.737-1.901h-.101c-.642.809-1.303 1.37-1.982 1.683s-1.565.469-2.658.469c-1.343 0-2.399-.383-3.171-1.15s-1.156-1.859-1.156-3.277c0-1.484.519-2.579 1.557-3.283 1.038-.705 2.604-1.095 4.697-1.17l2.427-.075v-.612c0-1.418-.726-2.127-2.177-2.127-1.117 0-2.431.338-3.94 1.014l-1.263-2.577c1.609-.842 3.394-1.263 5.354-1.263 1.876 0 3.314.408 4.315 1.226 1 .817 1.501 2.06 1.501 3.728v9.318h-2.666zm-1.125-6.48l-1.477.05c-1.109.034-1.935.234-2.477.601-.542.367-.812.926-.812 1.677 0 1.075.616 1.613 1.851 1.613.884 0 1.591-.254 2.12-.763s.795-1.185.795-2.026v-1.152"/><path d="m321.68 165.04c.667 0 1.468-.146 2.401-.438v2.84c-.95.425-2.118.638-3.502.638-1.526 0-2.638-.386-3.333-1.157-.697-.771-1.045-1.928-1.045-3.471v-6.742h-1.826v-1.613l2.102-1.276 1.101-2.951h2.439v2.977h3.915v2.864h-3.915v6.742c0 .542.151.942.456 1.201.305.256.707.386 1.207.386"/><path d="m326.75 150.23c0-1.242.692-1.863 2.076-1.863s2.076.621 2.076 1.863c0 .593-.173 1.054-.519 1.383-.347.329-.865.494-1.558.494-1.383 0-2.075-.626-2.075-1.877m3.977 17.6h-3.815v-13.984h3.815v13.984"/><path d="m347.44 160.81c0 2.277-.601 4.058-1.802 5.342-1.2 1.284-2.872 1.926-5.02 1.926-1.343 0-2.526-.294-3.552-.882-1.026-.588-1.814-1.432-2.364-2.533-.551-1.101-.826-2.385-.826-3.853 0-2.284.597-4.061 1.789-5.328s2.868-1.901 5.03-1.901c1.343 0 2.526.292 3.553.876 1.025.584 1.813 1.422 2.363 2.514.552 1.092.827 2.372.827 3.839m-9.669 0c0 1.385.227 2.432.682 3.14.454.709 1.194 1.063 2.22 1.063 1.018 0 1.749-.353 2.195-1.057.446-.705.67-1.753.67-3.146 0-1.384-.226-2.422-.676-3.114s-1.188-1.038-2.214-1.038c-1.018 0-1.751.344-2.202 1.032-.45.688-.675 1.728-.675 3.12"/><path d="m363.5 167.83h-3.815v-8.168c0-1.01-.18-1.766-.538-2.271-.358-.504-.93-.757-1.713-.757-1.068 0-1.839.356-2.314 1.07-.476.713-.713 1.895-.713 3.546v6.579h-3.815v-13.984h2.915l.513 1.789h.213c.425-.676 1.01-1.187 1.757-1.532.746-.347 1.595-.52 2.546-.52 1.626 0 2.86.44 3.702 1.319.842.88 1.264 2.149 1.264 3.81v9.119z"/><path d="m372.84 162.53v-3.127h6.717v3.127h-6.717"/><path d="m397.04 152.51c-1.46 0-2.59.548-3.39 1.645-.801 1.097-1.201 2.625-1.201 4.584 0 4.078 1.53 6.117 4.591 6.117 1.284 0 2.839-.321 4.665-.964v3.253c-1.501.625-3.177.938-5.03.938-2.66 0-4.694-.807-6.104-2.42-1.409-1.614-2.114-3.93-2.114-6.948 0-1.901.346-3.567 1.038-4.997.692-1.431 1.687-2.527 2.983-3.29s2.816-1.145 4.56-1.145c1.776 0 3.561.43 5.354 1.288l-1.251 3.152c-.684-.325-1.372-.608-2.063-.851-.693-.242-1.373-.362-2.04-.362"/><path d="m418.21 167.83h-3.815v-8.168c0-2.02-.75-3.03-2.251-3.03-1.068 0-1.839.363-2.314 1.089s-.713 1.901-.713 3.527v6.579h-3.815v-19.463h3.815v3.965c0 .309-.029 1.034-.088 2.177l-.087 1.126h.2c.851-1.368 2.201-2.052 4.053-2.052 1.643 0 2.889.442 3.739 1.326s1.276 2.151 1.276 3.803v9.118"/><path d="m431.02 167.83l-.737-1.901h-.101c-.642.809-1.303 1.37-1.982 1.683s-1.565.469-2.658.469c-1.343 0-2.399-.383-3.171-1.15s-1.156-1.859-1.156-3.277c0-1.484.519-2.579 1.557-3.283 1.038-.705 2.604-1.095 4.697-1.17l2.427-.075v-.612c0-1.418-.726-2.127-2.177-2.127-1.117 0-2.431.338-3.94 1.014l-1.263-2.577c1.609-.842 3.394-1.263 5.354-1.263 1.876 0 3.314.408 4.315 1.226 1 .817 1.501 2.06 1.501 3.728v9.318h-2.666zm-1.125-6.48l-1.477.05c-1.109.034-1.935.234-2.477.601-.542.367-.812.926-.812 1.677 0 1.075.616 1.613 1.851 1.613.884 0 1.591-.254 2.12-.763s.795-1.185.795-2.026v-1.152"/><path d="m450.52 167.83h-3.815v-8.168c0-1.01-.18-1.766-.538-2.271-.358-.504-.93-.757-1.713-.757-1.068 0-1.839.356-2.314 1.07-.476.713-.713 1.895-.713 3.546v6.579h-3.815v-13.984h2.915l.513 1.789h.213c.425-.676 1.01-1.187 1.757-1.532.746-.347 1.595-.52 2.546-.52 1.626 0 2.86.44 3.702 1.319.842.88 1.264 2.149 1.264 3.81v9.119z"/><path d="m466.62 153.85v1.938l-2.188.563c.399.625.6 1.325.6 2.102 0 1.501-.523 2.67-1.569 3.508-1.047.839-2.5 1.258-4.359 1.258l-.688-.038-.563-.062c-.392.301-.588.634-.588 1 0 .55.701.825 2.102.825h2.377c1.534 0 2.703.33 3.509.988.804.659 1.207 1.626 1.207 2.902 0 1.634-.683 2.901-2.046 3.802-1.363.901-3.32 1.352-5.872 1.352-1.951 0-3.442-.34-4.472-1.02-1.03-.68-1.545-1.633-1.545-2.858 0-.842.263-1.547.788-2.113.525-.567 1.296-.972 2.313-1.214-.392-.167-.733-.439-1.025-.819-.292-.379-.438-.781-.438-1.207 0-.533.154-.978.463-1.332.308-.354.754-.702 1.338-1.045-.733-.316-1.315-.825-1.745-1.525-.429-.7-.644-1.526-.644-2.477 0-1.526.496-2.706 1.488-3.54s2.41-1.251 4.253-1.251c.392 0 .856.036 1.395.106.538.071.882.123 1.032.156h4.877m-10.795 15.961c0 .525.252.938.757 1.238.505.3 1.211.45 2.12.45 1.368 0 2.439-.188 3.215-.562.775-.376 1.163-.889 1.163-1.539 0-.525-.229-.888-.688-1.088-.459-.2-1.168-.301-2.127-.301h-1.976c-.701 0-1.287.165-1.758.494-.471.33-.706.766-.706 1.308m1.388-11.382c0 .759.173 1.359.52 1.801.346.442.873.663 1.582.663.717 0 1.242-.221 1.576-.663.333-.441.5-1.042.5-1.801 0-1.685-.692-2.526-2.076-2.526-1.401-.001-2.102.841-2.102 2.526"/><path d="m475.25 168.08c-2.251 0-4.01-.621-5.278-1.863-1.268-1.243-1.901-3-1.901-5.278 0-2.344.586-4.155 1.758-5.436 1.172-1.279 2.791-1.92 4.859-1.92 1.977 0 3.515.563 4.615 1.688 1.102 1.126 1.651 2.682 1.651 4.666v1.851h-9.02c.042 1.085.363 1.931.963 2.54.601.608 1.443.913 2.527.913.842 0 1.639-.088 2.389-.263.751-.176 1.534-.455 2.352-.839v2.952c-.667.334-1.38.582-2.139.744-.759.164-1.685.245-2.777.245m-.538-11.782c-.81 0-1.443.256-1.901.769-.459.513-.722 1.241-.788 2.183h5.354c-.017-.941-.263-1.67-.738-2.183s-1.118-.769-1.927-.769"/><path d="m496.57 167.83h-3.815v-8.168c0-1.01-.169-1.766-.507-2.271-.337-.504-.869-.757-1.595-.757-.976 0-1.685.359-2.126 1.076-.442.717-.663 1.897-.663 3.54v6.579h-3.815v-13.984h2.915l.513 1.789h.213c.375-.643.917-1.145 1.626-1.508.708-.362 1.521-.544 2.438-.544 2.094 0 3.511.684 4.253 2.052h.338c.375-.65.928-1.155 1.657-1.514s1.553-.538 2.471-.538c1.584 0 2.783.406 3.596 1.22.813.812 1.22 2.116 1.22 3.909v9.118h-3.827v-8.168c0-1.01-.169-1.766-.507-2.271-.338-.504-.869-.757-1.595-.757-.934 0-1.633.334-2.095 1-.463.667-.694 1.727-.694 3.177v7.02"/><path d="m515.54 168.08c-2.251 0-4.01-.621-5.278-1.863-1.268-1.243-1.901-3-1.901-5.278 0-2.344.586-4.155 1.758-5.436 1.172-1.279 2.791-1.92 4.859-1.92 1.977 0 3.515.563 4.615 1.688 1.102 1.126 1.651 2.682 1.651 4.666v1.851h-9.02c.042 1.085.363 1.931.963 2.54.601.608 1.443.913 2.527.913.842 0 1.639-.088 2.389-.263.751-.176 1.534-.455 2.352-.839v2.952c-.667.334-1.38.582-2.139.744-.759.164-1.685.245-2.777.245m-.537-11.782c-.81 0-1.443.256-1.901.769-.459.513-.722 1.241-.788 2.183h5.354c-.017-.941-.263-1.67-.738-2.183s-1.119-.769-1.927-.769"/><path d="m537.25 167.83h-3.815v-8.168c0-1.01-.18-1.766-.538-2.271-.358-.504-.93-.757-1.713-.757-1.068 0-1.839.356-2.314 1.07-.476.713-.713 1.895-.713 3.546v6.579h-3.815v-13.984h2.915l.513 1.789h.213c.425-.676 1.01-1.187 1.757-1.532.746-.347 1.595-.52 2.546-.52 1.626 0 2.86.44 3.702 1.319.842.88 1.264 2.149 1.264 3.81v9.119z"/><path d="m547.07 165.04c.667 0 1.468-.146 2.401-.438v2.84c-.95.425-2.118.638-3.502.638-1.526 0-2.638-.386-3.333-1.157-.697-.771-1.045-1.928-1.045-3.471v-6.742h-1.826v-1.613l2.102-1.276 1.101-2.951h2.439v2.977h3.915v2.864h-3.915v6.742c0 .542.151.942.456 1.201.304.256.707.386 1.207.386"/></g></svg>