<svg xmlns="http://www.w3.org/2000/svg" width="335.37" viewBox="88.317 50 335.365 412" enable-background="new 88.317 50 335.365 412"><path fill="#00a3cc" d="m297.82 90v85.75h85.86v246.25h-255.37v-332h169.5m25-40h-234.5v412h335.37v-311.25l-100.86-100.75m26.769 217.93h-48.662v68.24h16.807v-27.24h27.608v-13.575h-27.608v-12.926h31.855v-14.498m-90.74 0h-29.594v68.24h29.594c9.952 0 17.814-3.338 23.368-9.921 10.278-12.183 10.866-37.67-1.169-49.85-5.478-5.541-13.153-8.468-22.2-8.468m-12.787 14.498h9.188c8.75 0 14.831 3.205 16.931 11.904 1.195 4.95 1.45 12.572-.377 17.571-2.371 6.48-7.07 9.769-13.968 9.769h-11.773l-.001-39.24m-50.759-14.498h-30.887v68.24h16.806v-23.639h14.08c11.479 0 19.736-5.154 22.659-14.14 1.752-5.384 1.751-11.04 0-16.369-2.949-8.953-11.209-14.09-22.659-14.09m-14.08 13.573h10.11c4.346 0 8.646.509 10.67 4.202 1.247 2.283 1.246 6.768-.001 9.05-2.024 3.69-6.323 4.198-10.669 4.198h-10.11v-17.452"/></svg>