<svg xmlns="http://www.w3.org/2000/svg" viewBox="50 0 462 512" enable-background="new 50 0 462 512"><path fill="#00a3cc" d="m461.97 359.36h-79.938c-.004-86.998-43.489-45.648-43.489-121.88 0-27.521 18.02-42.45 41.15-42.45 34.18 0 57.969 32.635 25.602 93.66-10.635 20.05 11.322 24.812 34.911 30.25 23.578 5.438 21.765 17.87 21.765 40.43m-390.17-40.43c23.589-5.441 45.546-10.205 34.912-30.25-32.368-61.03-8.58-93.66 25.601-93.66 23.13 0 41.15 14.936 41.15 42.46 0 76.24-43.486 34.887-43.49 121.88h-79.937c0-22.557-1.814-34.989 21.764-40.43m260.32-10.424c-29.67-6.846-57.29-12.838-43.912-38.06 40.714-76.76 10.791-117.81-32.2-117.81-43.842 0-73.03 42.625-32.2 117.81 13.776 25.371-14.883 31.357-43.915 38.06-29.658 6.841-27.377 22.478-27.377 50.851h206.98c-.001-28.375 2.282-44.01-27.377-50.851"/></svg>