<svg xmlns="http://www.w3.org/2000/svg" viewBox="50 0 462 512" enable-background="new 50 0 462 512"><path fill="#fff" d="m253 68.13c-48.984 0-88.7 39.712-88.7 88.69 0 72.839 69.762 80.54 88.7 191.32 18.937-110.78 88.69-118.48 88.69-191.32.001-48.98-39.709-88.69-88.69-88.69m0 118.35c-17.569 0-31.811-14.241-31.811-31.808 0-17.567 14.24-31.812 31.811-31.812 17.567 0 31.809 14.243 31.809 31.812 0 17.566-14.241 31.808-31.809 31.808m209 257.4l-115.14-41.666-93.67 41.666-93-41.666-110.19 41.666 67.56-134.44 75.37-32.785c5.425 7.85 10.593 16.396 15.209 26.24-16.397 7.02-2.531 1.023-68.67 29.757l-28.12 55.967 46.43-17.56 26.996-48.17-10.916 52.33 71.33 32 8-36.07 9 36.399 71.67-32.33-10.959-53.834 27.2 50.11 51.26 18.549-28.786-57.28-73.996-31.42c4.668-9.658 9.991-18.295 15.429-26.04l80.43 34.15 67.56 134.45"/></svg>