<svg xmlns="http://www.w3.org/2000/svg" viewBox="79.5 0 432.5 512" enable-background="new 79.5 0 432.5 512"><path fill="#00a3cc" d="m373.53 81.67c-9.09 0-17.813-3.598-24.26-10.01l-21.765-21.659h-143l-21.768 21.658c-6.447 6.411-15.171 10.01-24.26 10.01h-58.969v380.33h353v-380.33h-58.971m18.471 339.83h-273v-300h62.33l24.917 25h101.25l25.25-25h59.25v300m-239.13-192.64l9-8.321c10.527 5.095 17.206 8.972 29.04 17.407 22.246-25.25 36.946-38.06 64.27-55.06l2.929 6.736c-22.533 19.664-39.04 41.567-62.801 84.19-14.657-17.261-24.439-28.27-42.44-44.951m0 107l9-8.321c10.527 5.095 17.206 8.971 29.04 17.407 22.246-25.25 36.946-38.06 64.27-55.06l2.929 6.736c-22.533 19.664-39.04 41.567-62.801 84.19-14.657-17.261-24.439-28.26-42.44-44.951m204.71-115.36h-69.999v-20h69.999v20m0 17.5h-69.999v20h69.999v-20m0 99.17h-69.999v-20h69.999v20m0 17.5h-69.999v20h69.999v-20"/></svg>