<svg xmlns="http://www.w3.org/2000/svg" width="286.7" height="89.86" viewBox="0 0 286.701 89.861" enable-background="new 0 0 286.701 89.861"><g fill="#00a3cc"><path d="m88.42 64.917v-29.964h3.484v26.808h13.22v3.156h-16.704"/><path d="m126.91 64.917h-16.704v-29.964h16.704v3.095h-13.22v9.653h12.42v3.074h-12.42v11.03h13.22v3.115"/><path d="m156.96 64.917h-3.977l-16.376-25.15h-.164c.219 2.951.328 5.656.328 8.117v17.03h-3.218v-29.965h3.936l16.334 25.04h.164c-.027-.369-.09-1.553-.184-3.555-.096-2-.131-3.434-.104-4.295v-17.194h3.26v29.964"/><path d="m174.42 64.917h-3.484v-26.87h-9.489v-3.095h22.463v3.095h-9.489v26.87"/><path d="m188.41 64.917v-29.964h3.484v29.964h-3.484"/><path d="m212.95 37.638c-3.293 0-5.892 1.096-7.798 3.289-1.906 2.193-2.859 5.195-2.859 9.01 0 3.922.919 6.951 2.757 9.09 1.837 2.139 4.457 3.207 7.859 3.207 2.091 0 4.475-.375 7.153-1.127v3.053c-2.077.779-4.64 1.17-7.686 1.17-4.414 0-7.819-1.34-10.217-4.02-2.398-2.678-3.598-6.484-3.598-11.416 0-3.088.577-5.793 1.732-8.116 1.154-2.323 2.821-4.112 5-5.37 2.179-1.257 4.744-1.886 7.695-1.886 3.143 0 5.889.574 8.239 1.722l-1.476 2.993c-2.266-1.066-4.534-1.599-6.802-1.599"/></g><path fill="#d4d600" d="m53.53 34.948c-40.658 33.29-40.676 56.16-42.15 48.33-1.467-7.835-10.877-6.739-10.877-6.739-6.991-11.169 61.41-52.919 53.02-41.591"/><path fill="#00a3cc" d="m130.52 8.08c-50.42 14.826-59.34 35.886-57.643 28.1 1.699-7.789-7.394-10.445-7.394-10.445-2.089-13.01 77.17-24.818 65.04-17.652"/><path fill="#eba21c" d="m211.9 13.328c-52.21-5.985-68.63 9.936-64.04 3.423 4.6-6.513-2.741-12.5-2.741-12.5 3.144-12.797 80.74 7.201 66.777 9.08"/><path fill="#bb0d7b" d="m284.81 49.858c-45.755-25.847-67.08-17.582-60.31-21.789 6.772-4.206 2.347-12.581 2.347-12.581 7.879-10.561 71.56 38.08 57.964 34.37"/><g fill="#00a3cc"><path d="m34.25 85.72h-1.528v-8.03h-2.747v-1.309h7.02v1.309h-2.746v8.03"/><path d="m41.35 85.84c-1.099 0-1.958-.32-2.578-.961-.619-.641-.93-1.523-.93-2.648 0-1.154.288-2.061.863-2.721.574-.66 1.364-.99 2.369-.99.933 0 1.67.283 2.211.85s.812 1.346.812 2.338v.811h-4.709c.021.686.207 1.213.557 1.582.349.369.841.553 1.476.553.417 0 .806-.039 1.165-.119.36-.078.747-.209 1.16-.393v1.221c-.366.174-.737.299-1.111.371-.376.071-.804.106-1.285.106m-.275-6.183c-.477 0-.858.152-1.146.453-.287.303-.459.744-.514 1.322h3.206c-.008-.582-.148-1.025-.421-1.324-.273-.301-.648-.451-1.125-.451"/><path d="m48.653 85.84c-1.069 0-1.882-.312-2.438-.936s-.834-1.52-.834-2.686c0-1.189.291-2.102.872-2.74.582-.641 1.422-.959 2.521-.959.745 0 1.416.139 2.01.416l-.454 1.207c-.635-.248-1.158-.371-1.571-.371-1.223 0-1.834.811-1.834 2.434 0 .793.152 1.387.457 1.785s.751.598 1.339.598c.668 0 1.301-.166 1.896-.498v1.309c-.268.158-.555.271-.858.34-.305.068-.676.101-1.109.101"/><path d="m58.5 85.72h-1.508v-4.344c0-.545-.109-.953-.329-1.221-.219-.268-.567-.402-1.044-.402-.631 0-1.094.188-1.39.564s-.444 1.01-.444 1.895v3.508h-1.501v-9.939h1.501v2.521c0 .406-.025.838-.076 1.297h.096c.204-.34.488-.604.853-.791s.789-.281 1.274-.281c1.712 0 2.568.861 2.568 2.588v4.605"/><path d="m66.801 85.72h-1.508v-4.344c0-.545-.109-.953-.329-1.221-.219-.268-.567-.402-1.044-.402-.635 0-1.099.188-1.393.562s-.441 1-.441 1.885v3.52h-1.501v-7.07h1.176l.211.928h.076c.213-.338.516-.598.907-.779.392-.184.826-.275 1.304-.275 1.694 0 2.542.861 2.542 2.588v4.604"/><path d="m75.16 82.17c0 1.152-.296 2.055-.888 2.701s-1.416.971-2.472.971c-.66 0-1.244-.148-1.751-.447-.507-.297-.896-.727-1.169-1.283-.272-.559-.409-1.205-.409-1.941 0-1.146.294-2.041.882-2.684s1.416-.965 2.485-.965c1.021 0 1.831.328 2.428.986.596.658.894 1.545.894 2.662m-5.143 0c0 1.631.604 2.445 1.809 2.445 1.192 0 1.788-.814 1.788-2.445 0-1.615-.601-2.422-1.801-2.422-.631 0-1.088.209-1.371.625-.283.418-.425 1.016-.425 1.797"/><path d="m78.38 85.72h-1.501v-9.939h1.501v9.939"/><path d="m86.8 82.17c0 1.152-.296 2.055-.888 2.701-.593.646-1.416.971-2.473.971-.66 0-1.243-.148-1.75-.447-.507-.297-.896-.727-1.169-1.283-.273-.559-.409-1.205-.409-1.941 0-1.146.294-2.041.882-2.684.587-.643 1.416-.965 2.484-.965 1.022 0 1.831.328 2.428.986s.895 1.545.895 2.662m-5.142 0c0 1.631.603 2.445 1.808 2.445 1.192 0 1.789-.814 1.789-2.445 0-1.615-.601-2.422-1.802-2.422-.63 0-1.087.209-1.37.625-.284.418-.425 1.016-.425 1.797"/><path d="m94.49 78.65v.824l-1.207.225c.11.148.202.332.274.549s.108.447.108.689c0 .729-.251 1.301-.754 1.719-.502.418-1.194.627-2.076.627-.226 0-.43-.018-.613-.053-.323.201-.485.436-.485.703 0 .162.075.283.227.365.151.08.43.121.834.121h1.232c.779 0 1.372.166 1.776.498s.606.811.606 1.438c0 .801-.33 1.418-.99 1.852-.66.436-1.613.652-2.861.652-.963 0-1.697-.17-2.204-.512-.507-.34-.76-.826-.76-1.455 0-.436.137-.801.412-1.096.274-.297.658-.502 1.152-.617-.2-.086-.365-.223-.495-.412s-.194-.389-.194-.598c0-.264.074-.486.224-.67.148-.184.37-.365.664-.543-.366-.158-.663-.414-.891-.77-.229-.355-.342-.773-.342-1.25 0-.766.241-1.359.725-1.781s1.172-.633 2.066-.633c.2 0 .41.014.63.041.219.027.384.057.495.086h2.447zm-5.552 8.164c0 .324.146.574.438.748.292.174.702.262 1.23.262.817 0 1.427-.117 1.827-.352.399-.234.6-.545.6-.932 0-.307-.109-.525-.328-.656-.22-.129-.628-.193-1.224-.193h-1.137c-.431 0-.772.1-1.025.303-.254.203-.381.476-.381.82m.646-5.877c0 .443.114.783.342 1.023.228.238.555.357.98.357.869 0 1.304-.465 1.304-1.393 0-.461-.108-.814-.323-1.064-.215-.248-.542-.373-.98-.373-.435 0-.764.123-.986.371-.225.247-.337.606-.337 1.079"/><path d="m95.71 76.78c0-.268.073-.475.221-.619.146-.145.356-.217.629-.217.264 0 .47.072.616.217.147.145.221.352.221.619 0 .256-.073.457-.221.604-.146.146-.353.221-.616.221-.272 0-.482-.074-.629-.221-.148-.147-.221-.348-.221-.604m1.59 8.937h-1.501v-7.07h1.501v7.07"/><path d="m102.53 85.84c-1.099 0-1.958-.32-2.577-.961-.62-.641-.93-1.523-.93-2.648 0-1.154.287-2.061.862-2.721s1.365-.99 2.37-.99c.933 0 1.669.283 2.21.85s.812 1.346.812 2.338v.811h-4.708c.021.686.206 1.213.556 1.582s.841.553 1.476.553c.418 0 .806-.039 1.166-.119.359-.078.746-.209 1.159-.393v1.221c-.366.174-.736.299-1.111.371s-.804.106-1.285.106m-.275-6.183c-.478 0-.859.152-1.146.453-.288.303-.459.744-.515 1.322h3.207c-.009-.582-.149-1.025-.422-1.324-.272-.301-.647-.451-1.124-.451"/><path d="m109.77 82.85v-1.277h3.283v1.277h-3.283"/><path d="m118.15 85.72v-9.34h1.527v9.34h-1.527"/><path d="m128.2 85.72h-1.508v-4.344c0-.545-.109-.953-.329-1.221-.219-.268-.567-.402-1.044-.402-.635 0-1.099.188-1.393.562s-.441 1-.441 1.885v3.52h-1.501v-7.07h1.176l.211.928h.076c.213-.338.516-.598.907-.779.392-.184.826-.275 1.304-.275 1.694 0 2.542.861 2.542 2.588v4.604"/><path d="m136.5 85.72h-1.508v-4.344c0-.545-.109-.953-.329-1.221-.219-.268-.567-.402-1.044-.402-.635 0-1.099.188-1.393.562s-.441 1-.441 1.885v3.52h-1.501v-7.07h1.176l.211.928h.076c.213-.338.516-.598.907-.779.392-.184.826-.275 1.304-.275 1.694 0 2.542.861 2.542 2.588v4.604"/><path d="m144.86 82.17c0 1.152-.296 2.055-.888 2.701s-1.416.971-2.472.971c-.66 0-1.244-.148-1.751-.447-.507-.297-.896-.727-1.169-1.283-.272-.559-.409-1.205-.409-1.941 0-1.146.294-2.041.882-2.684s1.416-.965 2.485-.965c1.021 0 1.831.328 2.428.986.596.658.894 1.545.894 2.662m-5.143 0c0 1.631.604 2.445 1.809 2.445 1.192 0 1.788-.814 1.788-2.445 0-1.615-.601-2.422-1.801-2.422-.631 0-1.088.209-1.371.625-.283.418-.425 1.016-.425 1.797"/><path d="m148.19 85.72l-2.683-7.07h1.584l1.438 4.107c.247.691.396 1.248.447 1.674h.051c.038-.307.188-.863.447-1.674l1.438-4.107h1.596l-2.695 7.07h-1.623"/><path d="m158 85.72l-.301-.984h-.051c-.341.43-.684.723-1.028.879-.346.154-.788.232-1.329.232-.694 0-1.236-.188-1.626-.562s-.584-.904-.584-1.59c0-.729.271-1.277.811-1.648.541-.371 1.365-.572 2.473-.607l1.22-.037v-.377c0-.451-.105-.789-.315-1.014-.211-.223-.538-.334-.98-.334-.362 0-.71.053-1.042.158-.332.107-.651.232-.958.377l-.485-1.072c.383-.201.803-.352 1.259-.457.455-.104.886-.156 1.29-.156.898 0 1.577.195 2.034.588.458.391.688 1.01.688 1.846v4.76h-1.076zm-2.236-1.023c.545 0 .982-.15 1.312-.455s.495-.732.495-1.281v-.613l-.907.037c-.706.027-1.221.145-1.542.355-.322.211-.482.533-.482.967 0 .316.094.561.281.732s.468.258.843.258"/><path d="m163.81 84.63c.366 0 .732-.059 1.099-.174v1.131c-.166.072-.38.133-.642.184-.262.049-.533.072-.814.072-1.423 0-2.134-.75-2.134-2.248v-3.807h-.965v-.666l1.035-.549.511-1.494h.927v1.57h2.01v1.139h-2.01v3.781c0 .361.09.629.271.801.181.174.418.26.712.26"/><path d="m166.23 76.78c0-.268.074-.475.221-.619.147-.145.356-.217.629-.217.265 0 .47.072.617.217.146.145.22.352.22.619 0 .256-.073.457-.22.604-.147.146-.353.221-.617.221-.272 0-.481-.074-.629-.221-.147-.147-.221-.348-.221-.604m1.591 8.937h-1.501v-7.07h1.501v7.07"/><path d="m176.23 82.17c0 1.152-.296 2.055-.888 2.701s-1.416.971-2.473.971c-.66 0-1.243-.148-1.75-.447-.507-.297-.896-.727-1.169-1.283-.272-.559-.409-1.205-.409-1.941 0-1.146.294-2.041.882-2.684s1.416-.965 2.485-.965c1.021 0 1.831.328 2.427.986.597.658.895 1.545.895 2.662m-5.143 0c0 1.631.603 2.445 1.808 2.445 1.192 0 1.789-.814 1.789-2.445 0-1.615-.601-2.422-1.802-2.422-.63 0-1.087.209-1.37.625-.283.418-.425 1.016-.425 1.797"/><path d="m184.17 85.72h-1.508v-4.344c0-.545-.109-.953-.329-1.221s-.567-.402-1.044-.402c-.635 0-1.1.188-1.393.562-.294.375-.441 1-.441 1.885v3.52h-1.501v-7.07h1.176l.21.928h.077c.213-.338.516-.598.907-.779.392-.184.826-.275 1.303-.275 1.695 0 2.543.861 2.543 2.588v4.604"/><path d="m189.04 82.85v-1.277h3.283v1.277h-3.283"/><path d="m201.4 77.55c-.877 0-1.567.311-2.069.932-.503.623-.754 1.48-.754 2.574 0 1.146.241 2.01.725 2.602.483.586 1.184.881 2.099.881.396 0 .779-.039 1.15-.119.37-.078.756-.18 1.156-.303v1.311c-.732.275-1.563.414-2.491.414-1.367 0-2.417-.414-3.149-1.242s-1.099-2.01-1.099-3.555c0-.971.178-1.82.533-2.549s.869-1.287 1.542-1.674 1.463-.582 2.37-.582c.954 0 1.836.201 2.645.602l-.549 1.271c-.315-.15-.648-.281-1-.395-.352-.111-.721-.168-1.109-.168"/><path d="m211.77 85.72h-1.508v-4.344c0-.545-.109-.953-.329-1.221s-.567-.402-1.044-.402c-.631 0-1.094.188-1.39.564s-.444 1.01-.444 1.895v3.508h-1.501v-9.939h1.501v2.521c0 .406-.025.838-.076 1.297h.096c.204-.34.488-.604.853-.791s.789-.281 1.274-.281c1.712 0 2.568.861 2.568 2.588v4.605"/><path d="m218.28 85.72l-.301-.984h-.051c-.341.43-.684.723-1.028.879-.346.154-.788.232-1.329.232-.694 0-1.236-.188-1.626-.562s-.584-.904-.584-1.59c0-.729.271-1.277.811-1.648.541-.371 1.365-.572 2.473-.607l1.22-.037v-.377c0-.451-.105-.789-.315-1.014-.211-.223-.538-.334-.98-.334-.362 0-.71.053-1.042.158-.332.107-.651.232-.958.377l-.485-1.072c.383-.201.803-.352 1.259-.457.455-.104.886-.156 1.29-.156.898 0 1.577.195 2.034.588.458.391.688 1.01.688 1.846v4.76h-1.076zm-2.237-1.023c.545 0 .982-.15 1.312-.455s.495-.732.495-1.281v-.613l-.907.037c-.706.027-1.221.145-1.542.355-.322.211-.482.533-.482.967 0 .316.094.561.281.732s.468.258.843.258"/><path d="m227.67 85.72h-1.508v-4.344c0-.545-.109-.953-.329-1.221s-.567-.402-1.044-.402c-.635 0-1.1.188-1.393.562-.294.375-.441 1-.441 1.885v3.52h-1.501v-7.07h1.176l.21.928h.077c.213-.338.516-.598.907-.779.392-.184.826-.275 1.303-.275 1.695 0 2.543.861 2.543 2.588v4.604"/><path d="m235.72 78.65v.824l-1.208.225c.111.148.202.332.275.549.072.217.108.447.108.689 0 .729-.252 1.301-.754 1.719-.503.418-1.194.627-2.076.627-.226 0-.431-.018-.613-.053-.323.201-.485.436-.485.703 0 .162.075.283.227.365.151.08.429.121.834.121h1.232c.779 0 1.371.166 1.776.498.404.332.606.811.606 1.438 0 .801-.33 1.418-.99 1.852-.66.436-1.614.652-2.861.652-.963 0-1.697-.17-2.204-.512-.507-.34-.761-.826-.761-1.455 0-.436.138-.801.412-1.096.275-.297.659-.502 1.153-.617-.2-.086-.365-.223-.495-.412s-.194-.389-.194-.598c0-.264.074-.486.224-.67.148-.184.37-.365.664-.543-.366-.158-.663-.414-.892-.77-.228-.355-.342-.773-.342-1.25 0-.766.242-1.359.726-1.781s1.172-.633 2.066-.633c.2 0 .41.014.629.041.22.027.385.057.495.086h2.448zm-5.552 8.164c0 .324.146.574.438.748s.702.262 1.229.262c.818 0 1.427-.117 1.827-.352s.601-.545.601-.932c0-.307-.109-.525-.329-.656-.219-.129-.627-.193-1.223-.193h-1.138c-.43 0-.771.1-1.025.303-.253.203-.38.476-.38.82m.646-5.877c0 .443.113.783.342 1.023.228.238.555.357.98.357.869 0 1.303-.465 1.303-1.393 0-.461-.107-.814-.322-1.064-.215-.248-.542-.373-.98-.373-.435 0-.764.123-.987.371-.225.247-.336.606-.336 1.079"/><path d="m240.12 85.84c-1.099 0-1.957-.32-2.577-.961s-.93-1.523-.93-2.648c0-1.154.288-2.061.862-2.721.575-.66 1.365-.99 2.37-.99.933 0 1.67.283 2.211.85.54.566.811 1.346.811 2.338v.811h-4.708c.021.686.207 1.213.556 1.582.35.369.842.553 1.476.553.418 0 .807-.039 1.166-.119.36-.078.746-.209 1.159-.393v1.221c-.366.174-.736.299-1.111.371s-.804.106-1.285.106m-.275-6.183c-.477 0-.859.152-1.146.453-.287.303-.459.744-.515 1.322h3.207c-.009-.582-.148-1.025-.422-1.324-.272-.301-.646-.451-1.124-.451"/><path d="m250.53 85.72h-1.508v-4.357c0-.541-.103-.943-.307-1.211-.205-.266-.524-.398-.958-.398-.58 0-1 .188-1.274.564-.271.377-.406 1-.406 1.883v3.52h-1.501v-7.07h1.176l.21.928h.077c.195-.338.48-.598.853-.779.373-.184.783-.275 1.229-.275 1.086 0 1.806.371 2.159 1.111h.103c.209-.35.503-.621.882-.818.379-.195.813-.293 1.303-.293.844 0 1.458.213 1.843.639.386.426.578 1.076.578 1.949v4.605h-1.501v-4.357c0-.541-.104-.943-.31-1.211-.207-.266-.527-.398-.962-.398-.583 0-1.01.182-1.28.547-.271.363-.405.922-.405 1.676v3.742z"/><path d="m260.16 85.84c-1.099 0-1.957-.32-2.577-.961s-.93-1.523-.93-2.648c0-1.154.288-2.061.862-2.721.575-.66 1.365-.99 2.37-.99.933 0 1.67.283 2.211.85.54.566.811 1.346.811 2.338v.811h-4.708c.021.686.207 1.213.556 1.582.35.369.842.553 1.476.553.418 0 .807-.039 1.166-.119.36-.078.746-.209 1.159-.393v1.221c-.366.174-.736.299-1.111.371s-.804.106-1.285.106m-.275-6.183c-.477 0-.859.152-1.146.453-.287.303-.459.744-.515 1.322h3.207c-.009-.582-.148-1.025-.422-1.324-.272-.301-.646-.451-1.124-.451"/><path d="m270.83 85.72h-1.508v-4.344c0-.545-.109-.953-.329-1.221s-.567-.402-1.044-.402c-.635 0-1.1.188-1.393.562-.294.375-.441 1-.441 1.885v3.52h-1.501v-7.07h1.176l.21.928h.077c.213-.338.516-.598.907-.779.392-.184.826-.275 1.303-.275 1.695 0 2.543.861 2.543 2.588v4.604"/><path d="m275.55 84.63c.366 0 .732-.059 1.099-.174v1.131c-.166.072-.38.133-.642.184-.262.049-.533.072-.814.072-1.423 0-2.134-.75-2.134-2.248v-3.807h-.965v-.666l1.035-.549.511-1.494h.927v1.57h2.01v1.139h-2.01v3.781c0 .361.09.629.271.801.181.174.418.26.712.26"/></g></svg>