<svg xmlns="http://www.w3.org/2000/svg" viewBox="0 0 512 512" enable-background="new 0 0 512 512"><path fill="#eba21c" d="m397.39 118.13c0 10.03-8.135 18.17-18.17 18.17s-18.17-8.136-18.17-18.17v-45.729c0-10.03 8.136-18.17 18.17-18.17s18.17 8.136 18.17 18.17v45.729m-245.5-45.811c0-10.03-8.136-18.17-18.17-18.17-10.04 0-18.17 8.136-18.17 18.17v45.728c0 10.03 8.135 18.17 18.17 18.17 10.03 0 18.17-8.136 18.17-18.17v-45.728m267.46 26.531v18.616c0 22.13-18 40.13-40.13 40.13-22.13 0-40.13-18-40.13-40.13v-18.616h-165.23v18.533c0 22.13-18 40.13-40.13 40.13-22.13 0-40.13-18-40.13-40.13v-18.533h-43.585v359h412v-359h-42.648m2.648 319h-332v-222.47h332v222.47m-155.84-82.67c0-14.731-7.681-26.24-20.387-31.12 9.716-4.852 15.363-14.818 15.363-27.609 0-24.714-24.1-39.482-47.4-39.482-27.12 0-47.591 16.986-48.831 50.757h30.2c-.26-13.972 4.987-24.15 18.828-24.15 8.249 0 17.13 4.996 17.13 15.967 0 13.849-14.992 15.833-28.788 14.627v23.504c19.606 0 31.3 1.244 31.3 18.09 0 13.3-10.06 19.253-20.02 19.253-15.12 0-21.29-11.277-21.835-26.662h-29.981c-.568 34.746 20.488 53.07 52.2 53.07 28.335-.004 52.23-17.323 52.23-46.25m79.22 43.732v-139.24h-25.556c-3.17 21.19-18.279 27.386-39.884 26.801v24.729h34v87.71h31.436"/></svg>