<svg xmlns="http://www.w3.org/2000/svg" viewBox="0 0 512 512" enable-background="new 0 0 512 512"><path fill="#eba21c" d="m344.32 319.79h-177.08v-26.612h177.08v26.612m-.001-57.954h-177.08v-26.612h177.08v26.612m-3.949-211.83c-30.461 0-55.16 24.695-55.16 55.16 0 12.08 3.895 23.24 10.479 32.33l-60.59 60.59 39.667-.007 42.73-42.729c6.971 3.183 14.712 4.97 22.875 4.97 30.462 0 55.15-24.694 55.15-55.15 0-30.463-24.693-55.16-55.15-55.16m0 43.26c-9.488 0-17.18-5.416-17.18-12.1 0-6.681 7.691-12.1 17.18-12.1s17.18 5.415 17.18 12.1c0 6.68-7.692 12.1-17.18 12.1m42.961 85.41c0 51.5 0 127.42 0 145.75 0 56.42-69.65 33.814-69.65 33.814s21.325 68.01-31.28 68.01c-28.657 0-47.96 0-153.73 0v-296.74h130.06c-3.394-11.384-4.417-23.412-2.76-35.752h-163.05v368.24h190.03c60.925 0 136.14-79.61 136.14-134.49v-189.8c-7.153 17.228-19.805 31.608-35.752 40.964"/></svg>