<?xml version="1.0" encoding="utf-8"?>
<!-- Generator: Adobe Illustrator 16.0.0, SVG Export Plug-In . SVG Version: 6.00 Build 0)  -->
<!DOCTYPE svg PUBLIC "-//W3C//DTD SVG 1.1//EN" "http://www.w3.org/Graphics/SVG/1.1/DTD/svg11.dtd">
<svg version="1.1" id="Calque_1" xmlns="http://www.w3.org/2000/svg" xmlns:xlink="http://www.w3.org/1999/xlink" x="0px" y="0px"
	 width="286.7px" height="89.859px" viewBox="0 0 286.7 89.859" enable-background="new 0 0 286.7 89.859" xml:space="preserve">
<path fill="#00A3CC" d="M53.53,34.948c-40.657,33.29-40.675,56.159-42.149,48.329c-1.467-7.834-10.877-6.738-10.877-6.738
	c-6.991-11.169,61.41-52.919,53.02-41.591"/>
<path fill="#D4D600" d="M130.52,8.08C80.1,22.906,71.18,43.965,72.877,36.18c1.699-7.789-7.394-10.445-7.394-10.445
	c-2.089-13.01,77.169-24.817,65.039-17.651"/>
<path fill="#EE7D00" d="M211.899,13.328c-52.209-5.985-68.629,9.936-64.039,3.423c4.6-6.514-2.741-12.5-2.741-12.5
	c3.144-12.797,80.739,7.2,66.776,9.08"/>
<path fill="#A80A2D" d="M284.808,49.858c-45.755-25.847-67.079-17.582-60.31-21.789c6.771-4.206,2.348-12.581,2.348-12.581
	C234.725,4.927,298.405,53.568,284.808,49.858"/>
<rect x="307.517" y="-39.237" fill="#A80A2D" width="101.667" height="31.667"/>
<rect x="311.184" y="13.984" fill="#BB0D7B" width="101.666" height="44.935"/>
<rect x="23.596" y="-107.638" fill="none" width="257.5" height="15"/>
<text transform="matrix(1 0 0 1 51.4155 -97.7585)" fill="#00A3CC" font-family="'OpenSans'" font-size="13">Technology - Innovation - Change</text>
<g>
	<rect x="64.846" y="-146.983" fill="none" width="175" height="72"/>
	<text transform="matrix(1 0 0 1 83.2144 -115.0632)" fill="#00A3CC" font-family="'OpenSans'" font-size="42">LENTIC</text>
</g>
<rect x="23.596" y="71.366" fill="none" width="257.5" height="15"/>
<text transform="matrix(1 0 0 1 51.4155 81.2463)" fill="#00A3CC" font-family="'OpenSans'" font-size="13">Technology - Innovation - Change</text>
<g>
	<rect x="64.846" y="32.022" fill="none" width="175" height="72"/>
	<text transform="matrix(1 0 0 1 83.2144 63.9417)" fill="#00A3CC" font-family="'OpenSans'" font-size="42">LENTIC</text>
</g>
</svg>
