<svg xmlns="http://www.w3.org/2000/svg" height="89.86" viewBox="0 0 286.7 89.859" enable-background="new 0 0 286.7 89.859"><path fill="#00a3cc" d="m53.53 34.948c-40.657 33.29-40.675 56.16-42.15 48.33-1.467-7.834-10.877-6.738-10.877-6.738-6.991-11.169 61.41-52.919 53.02-41.591"/><path fill="#d4d600" d="m130.52 8.08c-50.42 14.826-59.34 35.885-57.643 28.1 1.699-7.789-7.394-10.445-7.394-10.445-2.089-13.01 77.17-24.817 65.04-17.651"/><path fill="#ee7d00" d="m211.9 13.328c-52.21-5.985-68.63 9.936-64.04 3.423 4.6-6.514-2.741-12.5-2.741-12.5 3.144-12.797 80.74 7.2 66.776 9.08"/><path fill="#a80a2d" d="m284.81 49.858c-45.755-25.847-67.08-17.582-60.31-21.789 6.771-4.206 2.348-12.581 2.348-12.581 7.879-10.561 71.56 38.08 57.962 34.37"/><g fill="#00a3cc"><g font-family="&apos;OpenSans&apos;"><text transform="translate(36.423-77.26)" font-size="13">Technologie - Innovation - Changement</text><text transform="translate(86.21-94.56)" font-size="42">LENTIC</text></g><path d="m40.555 81.25h-1.079v-8.322h-2.939v-.957h6.957v.957h-2.939v8.322"/><path d="m47.671 81.37c-1.028 0-1.84-.312-2.434-.939-.595-.625-.892-1.496-.892-2.609 0-1.121.276-2.01.829-2.672.552-.66 1.293-.99 2.225-.99.872 0 1.562.287 2.069.861.508.572.762 1.328.762 2.268v.668h-4.792c.021.816.228 1.436.619 1.859.392.424.943.635 1.654.635.749 0 1.49-.156 2.222-.471v.939c-.373.162-.725.277-1.057.348-.334.068-.735.103-1.205.103m-.286-6.328c-.559 0-1 .182-1.336.545-.333.365-.528.869-.587 1.512h3.637c0-.664-.148-1.174-.444-1.527s-.719-.53-1.27-.53"/><path d="m54.806 81.37c-1.01 0-1.787-.309-2.339-.93-.553-.619-.829-1.496-.829-2.631 0-1.164.28-2.062.841-2.697.561-.635 1.359-.953 2.396-.953.334 0 .668.037 1 .107.334.072.597.158.787.254l-.324.896c-.233-.094-.487-.17-.762-.232-.275-.061-.519-.092-.73-.092-1.414 0-2.12.9-2.12 2.703 0 .855.172 1.512.517 1.969.345.457.856.686 1.533.686.58 0 1.174-.125 1.784-.375v.934c-.464.24-1.051.361-1.757.361"/><path d="m62.975 81.25v-4.5c0-.566-.129-.99-.387-1.27s-.662-.42-1.212-.42c-.732 0-1.267.199-1.603.598-.337.398-.505 1.049-.505 1.955v3.637h-1.054v-9.877h1.054v2.99c0 .359-.017.658-.051.895h.063c.208-.334.502-.598.886-.789.383-.193.82-.289 1.311-.289.851 0 1.488.201 1.914.605.425.404.638 1.047.638 1.926v4.539h-1.054"/><path d="m70.954 81.25v-4.5c0-.566-.129-.99-.387-1.27s-.662-.42-1.212-.42c-.728 0-1.261.197-1.6.592-.338.393-.508 1.043-.508 1.947v3.65h-1.054v-6.957h.857l.171.953h.051c.216-.344.519-.609.908-.797.389-.189.823-.283 1.301-.283.838 0 1.468.203 1.892.607s.635 1.049.635 1.938v4.539h-1.054"/><path d="m80.18 77.76c0 1.135-.286 2.02-.857 2.656s-1.36.955-2.368.955c-.622 0-1.174-.146-1.657-.438-.482-.293-.855-.711-1.117-1.258-.262-.545-.394-1.184-.394-1.916 0-1.135.284-2.02.851-2.65s1.354-.949 2.361-.949c.973 0 1.747.324 2.32.971.575.648.861 1.523.861 2.629m-5.3 0c0 .889.178 1.566.533 2.031s.878.697 1.568.697 1.213-.23 1.571-.693c.357-.465.536-1.143.536-2.035 0-.885-.179-1.557-.536-2.02-.358-.459-.886-.689-1.584-.689-.69 0-1.21.227-1.562.68s-.526 1.128-.526 2.025"/><path d="m83.08 81.25h-1.054v-9.877h1.054v9.877"/><path d="m91.32 77.76c0 1.135-.286 2.02-.857 2.656s-1.36.955-2.368.955c-.622 0-1.174-.146-1.657-.438-.482-.293-.855-.711-1.117-1.258-.262-.545-.394-1.184-.394-1.916 0-1.135.284-2.02.851-2.65s1.354-.949 2.361-.949c.973 0 1.747.324 2.32.971.575.648.861 1.523.861 2.629m-5.3 0c0 .889.178 1.566.533 2.031s.878.697 1.568.697 1.213-.23 1.571-.693c.357-.465.536-1.143.536-2.035 0-.885-.179-1.557-.536-2.02-.358-.459-.886-.689-1.584-.689-.69 0-1.21.227-1.562.68s-.526 1.128-.526 2.025"/><path d="m98.86 74.29v.666l-1.289.152c.119.148.224.342.317.582.093.238.14.508.14.809 0 .682-.233 1.225-.698 1.631s-1.104.609-1.917.609c-.208 0-.402-.016-.584-.051-.449.238-.673.537-.673.896 0 .189.078.33.235.422.157.09.425.137.806.137h1.231c.753 0 1.332.158 1.736.475.404.318.606.779.606 1.385 0 .77-.309 1.357-.927 1.762s-1.519.605-2.704.605c-.91 0-1.611-.168-2.104-.508-.493-.338-.74-.816-.74-1.434 0-.424.135-.789.406-1.1.271-.309.652-.518 1.143-.627-.178-.08-.327-.205-.448-.375-.12-.17-.181-.365-.181-.59 0-.254.068-.477.203-.668.135-.189.349-.373.641-.551-.36-.148-.653-.4-.879-.756-.226-.355-.339-.762-.339-1.219 0-.762.229-1.35.686-1.762s1.104-.619 1.942-.619c.364 0 .692.043.984.127h2.407zm-5.547 8.125c0 .377.159.662.476.857s.772.291 1.365.291c.884 0 1.54-.131 1.964-.396.426-.264.638-.623.638-1.076 0-.375-.116-.637-.349-.783s-.671-.219-1.314-.219h-1.263c-.478 0-.851.113-1.117.342s-.4.557-.4.984m.571-5.896c0 .486.138.855.413 1.104.275.25.658.375 1.149.375 1.028 0 1.542-.498 1.542-1.498 0-1.045-.521-1.568-1.562-1.568-.495 0-.876.135-1.143.4-.266.267-.399.661-.399 1.187"/><path d="m100.2 72.41c0-.242.059-.418.178-.529.119-.113.267-.17.444-.17.169 0 .315.059.438.172.123.115.184.291.184.527s-.062.414-.184.529c-.123.117-.269.176-.438.176-.178 0-.326-.059-.444-.176-.119-.115-.178-.293-.178-.529m1.142 8.841h-1.054v-6.957h1.054v6.957"/><path d="m106.51 81.37c-1.028 0-1.84-.312-2.434-.939-.595-.625-.892-1.496-.892-2.609 0-1.121.276-2.01.829-2.672.552-.66 1.293-.99 2.225-.99.872 0 1.562.287 2.069.861.508.572.762 1.328.762 2.268v.668h-4.792c.021.816.228 1.436.619 1.859.392.424.943.635 1.654.635.749 0 1.49-.156 2.222-.471v.939c-.373.162-.725.277-1.057.348-.335.068-.736.103-1.205.103m-.286-6.328c-.559 0-1 .182-1.336.545-.333.365-.528.869-.587 1.512h3.637c0-.664-.148-1.174-.444-1.527s-.72-.53-1.27-.53"/><path d="m113.66 78.24v-.964h3.117v.965h-3.117z"/><path d="m121.96 81.25v-9.279h1.079v9.279h-1.079"/><path d="m130.19 81.25v-4.5c0-.566-.129-.99-.387-1.27s-.662-.42-1.212-.42c-.728 0-1.261.197-1.6.592-.338.393-.508 1.043-.508 1.947v3.65h-1.054v-6.957h.857l.171.953h.051c.216-.344.519-.609.908-.797.389-.189.823-.283 1.301-.283.838 0 1.468.203 1.892.607s.635 1.049.635 1.938v4.539h-1.054"/><path d="m138.17 81.25v-4.5c0-.566-.129-.99-.387-1.27s-.662-.42-1.212-.42c-.728 0-1.261.197-1.6.592-.338.393-.508 1.043-.508 1.947v3.65h-1.054v-6.957h.857l.171.953h.051c.216-.344.519-.609.908-.797.389-.189.823-.283 1.301-.283.838 0 1.468.203 1.892.607.424.404.635 1.049.635 1.938v4.539h-1.054"/><path d="m147.39 77.76c0 1.135-.286 2.02-.856 2.656-.572.637-1.361.955-2.368.955-.622 0-1.175-.146-1.657-.438-.482-.293-.854-.711-1.117-1.258-.262-.545-.393-1.184-.393-1.916 0-1.135.283-2.02.85-2.65.567-.633 1.354-.949 2.361-.949.974 0 1.747.324 2.32.971.573.648.86 1.523.86 2.629m-5.3 0c0 .889.178 1.566.533 2.031s.878.697 1.567.697 1.214-.23 1.571-.693c.357-.465.536-1.143.536-2.035 0-.885-.179-1.557-.536-2.02s-.886-.689-1.584-.689c-.689 0-1.21.227-1.562.68s-.525 1.128-.525 2.025"/><path d="m150.76 81.25l-2.641-6.957h1.13l1.498 4.127c.339.965.537 1.59.597 1.879h.051c.047-.225.193-.689.441-1.395.247-.703.803-2.24 1.666-4.611h1.13l-2.641 6.957h-1.231"/><path d="m160.03 81.25l-.21-.99h-.051c-.347.436-.692.732-1.037.887s-.775.23-1.292.23c-.689 0-1.23-.178-1.622-.533s-.587-.861-.587-1.518c0-1.404 1.124-2.141 3.37-2.209l1.182-.037v-.432c0-.547-.118-.949-.353-1.209-.235-.26-.61-.391-1.127-.391-.58 0-1.235.178-1.968.533l-.324-.807c.344-.186.719-.332 1.127-.438s.818-.158 1.229-.158c.829 0 1.444.184 1.844.551.4.369.6.959.6 1.771v4.748h-.781zm-2.38-.742c.655 0 1.171-.18 1.545-.539.375-.359.562-.863.562-1.512v-.629l-1.055.045c-.838.029-1.441.16-1.812.391s-.556.59-.556 1.076c0 .381.115.67.346.869s.555.299.97.299"/><path d="m165.23 80.5c.187 0 .366-.014.54-.041.173-.027.311-.057.412-.086v.807c-.114.055-.282.1-.505.137-.222.035-.422.053-.6.053-1.346 0-2.02-.709-2.02-2.127v-4.139h-.996v-.508l.996-.438.444-1.484h.609v1.611h2.02v.818h-2.02v4.096c0 .418.1.74.298.965.201.225.474.336.821.336"/><path d="m167.48 72.41c0-.242.06-.418.178-.529.118-.113.267-.17.444-.17.169 0 .315.059.438.172.123.115.185.291.185.527s-.062.414-.185.529c-.122.117-.269.176-.438.176-.178 0-.326-.059-.444-.176-.118-.115-.178-.293-.178-.529m1.143 8.841h-1.054v-6.957h1.054v6.957"/><path d="m176.86 77.76c0 1.135-.286 2.02-.856 2.656-.572.637-1.361.955-2.368.955-.622 0-1.175-.146-1.657-.438-.482-.293-.854-.711-1.117-1.258-.262-.545-.393-1.184-.393-1.916 0-1.135.283-2.02.85-2.65.567-.633 1.354-.949 2.361-.949.974 0 1.747.324 2.32.971.573.648.86 1.523.86 2.629m-5.3 0c0 .889.178 1.566.533 2.031s.878.697 1.567.697 1.214-.23 1.571-.693c.357-.465.536-1.143.536-2.035 0-.885-.179-1.557-.536-2.02s-.886-.689-1.584-.689c-.689 0-1.21.227-1.562.68s-.525 1.128-.525 2.025"/><path d="m183.47 81.25v-4.5c0-.566-.129-.99-.388-1.27-.258-.279-.662-.42-1.212-.42-.728 0-1.261.197-1.6.592-.339.393-.508 1.043-.508 1.947v3.65h-1.054v-6.957h.857l.171.953h.051c.216-.344.519-.609.907-.797.39-.189.823-.283 1.302-.283.838 0 1.469.203 1.892.607s.635 1.049.635 1.938v4.539h-1.053"/><path d="m189.48 78.24v-.964h3.117v.965h-3.117z"/><path d="m201.76 72.797c-1.021 0-1.825.34-2.416 1.02-.59.68-.885 1.609-.885 2.789 0 1.215.284 2.154.854 2.816s1.381.992 2.434.992c.648 0 1.387-.115 2.216-.348v.945c-.644.24-1.437.361-2.38.361-1.367 0-2.422-.414-3.165-1.244-.742-.828-1.114-2.01-1.114-3.535 0-.957.18-1.795.537-2.514s.874-1.273 1.549-1.664c.675-.389 1.469-.584 2.383-.584.974 0 1.824.178 2.553.533l-.457.928c-.704-.329-1.407-.495-2.109-.495"/><path d="m210.59 81.25v-4.5c0-.566-.129-.99-.388-1.27-.258-.279-.662-.42-1.212-.42-.732 0-1.267.199-1.603.598-.337.398-.505 1.049-.505 1.955v3.637h-1.054v-9.877h1.054v2.99c0 .359-.017.658-.051.895h.063c.207-.334.503-.598.886-.789.383-.193.819-.289 1.311-.289.851 0 1.488.201 1.914.605.425.404.638 1.047.638 1.926v4.539h-1.053"/><path d="m218.09 81.25l-.21-.99h-.051c-.347.436-.692.732-1.037.887s-.775.23-1.292.23c-.689 0-1.23-.178-1.622-.533s-.587-.861-.587-1.518c0-1.404 1.124-2.141 3.37-2.209l1.182-.037v-.432c0-.547-.118-.949-.353-1.209-.235-.26-.61-.391-1.127-.391-.58 0-1.235.178-1.968.533l-.324-.807c.344-.186.719-.332 1.127-.438s.818-.158 1.229-.158c.829 0 1.444.184 1.844.551.4.369.6.959.6 1.771v4.748h-.781zm-2.379-.742c.655 0 1.171-.18 1.545-.539.375-.359.562-.863.562-1.512v-.629l-1.055.045c-.838.029-1.441.16-1.812.391s-.556.59-.556 1.076c0 .381.115.67.346.869s.555.299.97.299"/><path d="m225.8 81.25v-4.5c0-.566-.129-.99-.388-1.27-.258-.279-.662-.42-1.212-.42-.728 0-1.261.197-1.6.592-.339.393-.508 1.043-.508 1.947v3.65h-1.054v-6.957h.857l.171.953h.051c.216-.344.519-.609.907-.797.39-.189.823-.283 1.302-.283.838 0 1.469.203 1.892.607s.635 1.049.635 1.938v4.539h-1.053"/><path d="m234.71 74.29v.666l-1.288.152c.118.148.225.342.317.582.093.238.14.508.14.809 0 .682-.232 1.225-.698 1.631s-1.104.609-1.917.609c-.207 0-.402-.016-.584-.051-.448.238-.673.537-.673.896 0 .189.078.33.234.422.157.09.426.137.807.137h1.231c.753 0 1.332.158 1.736.475.404.318.606.779.606 1.385 0 .77-.31 1.357-.928 1.762-.617.404-1.519.605-2.703.605-.91 0-1.611-.168-2.104-.508-.493-.338-.739-.816-.739-1.434 0-.424.135-.789.406-1.1.271-.309.651-.518 1.143-.627-.178-.08-.327-.205-.448-.375-.12-.17-.181-.365-.181-.59 0-.254.067-.477.203-.668.136-.189.35-.373.641-.551-.359-.148-.652-.4-.879-.756s-.34-.762-.34-1.219c0-.762.229-1.35.686-1.762s1.105-.619 1.943-.619c.363 0 .691.043.983.127h2.406zm-5.546 8.125c0 .377.158.662.476.857s.772.291 1.364.291c.885 0 1.54-.131 1.965-.396.426-.264.639-.623.639-1.076 0-.375-.117-.637-.35-.783s-.671-.219-1.314-.219h-1.263c-.479 0-.851.113-1.117.342s-.4.557-.4.984m.57-5.896c0 .486.138.855.413 1.104.275.25.658.375 1.149.375 1.027 0 1.542-.498 1.542-1.498 0-1.045-.521-1.568-1.562-1.568-.495 0-.876.135-1.143.4-.265.267-.399.661-.399 1.187"/><path d="m239.08 81.37c-1.029 0-1.84-.312-2.435-.939-.595-.625-.892-1.496-.892-2.609 0-1.121.275-2.01.828-2.672.552-.66 1.294-.99 2.225-.99.872 0 1.562.287 2.069.861.508.572.762 1.328.762 2.268v.668h-4.792c.021.816.227 1.436.618 1.859s.942.635 1.653.635c.75 0 1.49-.156 2.223-.471v.939c-.373.162-.726.277-1.058.348-.331.068-.733.103-1.201.103m-.286-6.328c-.559 0-1 .182-1.336.545-.332.365-.528.869-.587 1.512h3.637c0-.664-.148-1.174-.444-1.527s-.721-.53-1.27-.53"/><path d="m252.3 81.25v-4.525c0-.555-.118-.971-.355-1.248-.236-.277-.604-.416-1.104-.416-.656 0-1.141.189-1.454.566s-.47.955-.47 1.738v3.885h-1.054v-4.525c0-.555-.118-.971-.355-1.248s-.607-.416-1.11-.416c-.66 0-1.145.199-1.451.594-.307.396-.46 1.045-.46 1.945v3.65h-1.054v-6.957h.857l.171.953h.051c.199-.34.479-.604.841-.795.362-.189.768-.285 1.216-.285 1.088 0 1.799.395 2.133 1.182h.051c.207-.365.508-.652.901-.863.394-.213.842-.318 1.346-.318.787 0 1.376.203 1.768.607s.588 1.049.588 1.938v4.539h-1.056z"/><path d="m258.46 81.37c-1.029 0-1.84-.312-2.435-.939-.595-.625-.892-1.496-.892-2.609 0-1.121.275-2.01.828-2.672.552-.66 1.294-.99 2.225-.99.872 0 1.562.287 2.069.861.508.572.762 1.328.762 2.268v.668h-4.792c.021.816.227 1.436.618 1.859s.942.635 1.653.635c.75 0 1.49-.156 2.223-.471v.939c-.373.162-.726.277-1.058.348-.331.068-.732.103-1.201.103m-.286-6.328c-.559 0-1 .182-1.336.545-.332.365-.528.869-.587 1.512h3.637c0-.664-.148-1.174-.444-1.527s-.72-.53-1.27-.53"/><path d="m267.58 81.25v-4.5c0-.566-.129-.99-.388-1.27-.258-.279-.662-.42-1.212-.42-.728 0-1.261.197-1.6.592-.339.393-.508 1.043-.508 1.947v3.65h-1.054v-6.957h.857l.171.953h.051c.216-.344.519-.609.907-.797.39-.189.823-.283 1.302-.283.838 0 1.469.203 1.892.607s.635 1.049.635 1.938v4.539h-1.053"/><path d="m273.04 80.5c.187 0 .366-.014.54-.041.173-.027.311-.057.412-.086v.807c-.114.055-.282.1-.505.137-.222.035-.422.053-.6.053-1.346 0-2.02-.709-2.02-2.127v-4.139h-.996v-.508l.996-.438.444-1.484h.609v1.611h2.02v.818h-2.02v4.096c0 .418.1.74.298.965.201.225.475.336.821.336"/><path d="M90.336,63.942V33.96h3.486v26.824h13.228v3.158H90.336z"/><path d="m128.85 63.942h-16.714v-29.982h16.714v3.097h-13.228v9.659h12.428v3.076h-12.428v11.03h13.228v3.117"/><path d="m158.91 63.942h-3.979l-16.386-25.16h-.164c.219 2.953.328 5.66.328 8.122v17.04h-3.22v-29.982h3.938l16.345 25.06h.164c-.027-.369-.089-1.555-.185-3.559-.096-2-.13-3.434-.103-4.295v-17.206h3.261v29.982z"/><path d="M176.387,63.942h-3.486V37.056h-9.495V33.96h22.477v3.097h-9.495V63.942z"/><path d="m190.39 63.942v-29.982h3.486v29.982h-3.486"/><path d="m214.94 36.646c-3.295 0-5.896 1.097-7.804 3.292-1.906 2.193-2.86 5.198-2.86 9.01 0 3.924.919 6.955 2.759 9.09 1.838 2.141 4.46 3.211 7.864 3.211 2.092 0 4.478-.377 7.157-1.129v3.057c-2.078.779-4.642 1.168-7.69 1.168-4.416 0-7.823-1.34-10.224-4.02-2.398-2.68-3.599-6.486-3.599-11.422 0-3.09.577-5.797 1.733-8.122 1.154-2.324 2.822-4.115 5-5.373 2.18-1.258 4.747-1.887 7.7-1.887 3.145 0 5.893.574 8.244 1.723l-1.477 2.994c-2.268-1.066-4.538-1.599-6.807-1.599"/></g></svg>