<svg xmlns="http://www.w3.org/2000/svg" width="561.37" height="176.39" viewBox="0 0 561.367 176.386" enable-background="new 0 0 561.367 176.386"><text transform="translate(165.06 127.11)" fill="#00a3cc" font-family="&apos;OpenSans&apos;" font-size="82.19">LENTIC</text><path fill="#d4d600" d="m104.81 68.43c-79.61 65.19-79.64 109.97-82.52 94.63-2.873-15.342-21.298-13.195-21.298-13.195-13.69-21.869 120.23-103.62 103.82-81.44"/><path fill="#00a3cc" d="m255.56 15.821c-98.72 29.03-116.19 70.27-112.87 55.01 3.326-15.25-14.477-20.451-14.477-20.451-4.091-25.472 151.09-48.593 127.34-34.562"/><path fill="#eba21c" d="m414.9 26.1c-102.23-11.719-134.38 19.455-125.38 6.703 9.01-12.752-5.366-24.477-5.366-24.477 6.156-25.06 158.09 14.1 130.75 17.774"/><path fill="#bb0d7b" d="m557.65 97.62c-89.59-50.607-131.35-34.426-118.09-42.662 13.262-8.234 4.595-24.633 4.595-24.633 15.428-20.68 140.11 74.57 113.5 67.3"/><text transform="translate(50.4 167.83)" fill="#00a3cc" font-family="&apos;OpenSans-Bold&apos;" font-size="25.617">Technologie - Innovation - Changement</text></svg>